<?xml version="1.0" encoding="UTF-8"?>
<svg width="16" height="16" version="1.1" viewBox="0 0 16 16" xmlns="http://www.w3.org/2000/svg">
	<path d="m12 15v-2h2v-2h-2v-2h-2v2h-2v2h2v2z" fill="#84ffb1" style="font-variation-settings:normal"/>
	<path d="m4 12a1.5 1.5 0 0 1-1.5 1.5 1.5 1.5 0 0 1-1.5-1.5 1.5 1.5 0 0 1 1.5-1.5 1.5 1.5 0 0 1 1.5 1.5m6-9.5a1.5 1.5 0 0 1-1.5 1.5 1.5 1.5 0 0 1-1.5-1.5 1.5 1.5 0 0 1 1.5-1.5 1.5 1.5 0 0 1 1.5 1.5" fill="#dedede" style="font-variation-settings:normal"/>
	<path d="M7.5 12.5v-1c-6.5 0 3.5-9.5-5.5-9.5h-1v1c9-.5-2 9.5 6.5 9.5z" fill="#909090" style="font-variation-settings:normal"/>
</svg>
